<svg version="1.1" viewBox="0.0 0.0 960.0 960.0" fill="none" stroke="none" stroke-linecap="square" stroke-miterlimit="10" xmlns:xlink="http://www.w3.org/1999/xlink" xmlns="http://www.w3.org/2000/svg"><clipPath id="p.0"><path d="m0 0l960.0 0l0 960.0l-960.0 0l0 -960.0z" clip-rule="nonzero"/></clipPath><g clip-path="url(#p.0)"><path fill="#000000" d="m0 0l960.0 0l0 960.0l-960.0 0z" fill-rule="evenodd"/><path fill="#000000" d="m234.79211 358.88846l0 0c0 -126.70369 104.0885 -229.41733 232.48819 -229.41733l0 0c61.6597 0 120.793976 24.170685 164.39395 67.19478c43.600037 43.024094 68.09424 101.37727 68.09424 162.22255l0 0c0 126.703674 -104.0885 229.41733 -232.48819 229.41733l0 0c-128.39969 0 -232.48819 -102.71365 -232.48819 -229.41733z" fill-rule="evenodd"/><path stroke="#339aff" stroke-width="24.0" stroke-linejoin="round" stroke-linecap="butt" d="m234.79211 358.88846l0 0c0 -126.70369 104.0885 -229.41733 232.48819 -229.41733l0 0c61.6597 0 120.793976 24.170685 164.39395 67.19478c43.600037 43.024094 68.09424 101.37727 68.09424 162.22255l0 0c0 126.703674 -104.0885 229.41733 -232.48819 229.41733l0 0c-128.39969 0 -232.48819 -102.71365 -232.48819 -229.41733z" fill-rule="evenodd"/><path fill="#000000" d="m249.17159 357.0177l0 0c0 -117.74536 96.38216 -213.19684 215.27559 -213.19684l0 0c57.094635 0 111.85086 22.461746 152.22281 62.44391c40.37201 39.982162 63.052795 94.209625 63.052795 150.75293l0 0c0 117.74536 -96.3822 213.19684 -215.2756 213.19684l0 0c-118.89343 0 -215.27559 -95.45148 -215.27559 -213.19684z" fill-rule="evenodd"/><path stroke="#339aff" stroke-width="24.0" stroke-linejoin="round" stroke-linecap="butt" d="m249.17159 357.0177l0 0c0 -117.74536 96.38216 -213.19684 215.27559 -213.19684l0 0c57.094635 0 111.85086 22.461746 152.22281 62.44391c40.37201 39.982162 63.052795 94.209625 63.052795 150.75293l0 0c0 117.74536 -96.3822 213.19684 -215.2756 213.19684l0 0c-118.89343 0 -215.27559 -95.45148 -215.27559 -213.19684z" fill-rule="evenodd"/><path fill="#000000" d="m181.43307 497.7377l584.25195 0l0 181.95273l-584.25195 0z" fill-rule="evenodd"/><path stroke="#000000" stroke-width="12.0" stroke-linejoin="round" stroke-linecap="butt" d="m181.43307 497.7377l584.25195 0l0 181.95273l-584.25195 0z" fill-rule="evenodd"/><path fill="#000000" d="m574.2517 450.53613l204.31494 0l0 187.08661l-204.31494 0z" fill-rule="evenodd"/><path stroke="#000000" stroke-width="12.0" stroke-linejoin="round" stroke-linecap="butt" d="m574.2517 450.53613l204.31494 0l0 187.08661l-204.31494 0z" fill-rule="evenodd"/><path fill="#000000" fill-opacity="0.0" d="m285.94577 476.48013c2.4767456 6.7539673 16.098938 25.06076 14.860535 40.523834c-1.2383728 15.463074 -20.344849 39.635254 -22.290833 52.254578c-1.9459839 12.619385 -1.0609131 23.816895 10.61496 23.461609c11.675873 -0.35534668 38.742462 -24.704834 59.44034 -25.593384c20.697876 -0.88861084 45.110565 20.084229 64.74689 20.261902c19.636292 0.1776123 33.96512 -17.951782 53.070984 -19.196045c19.105835 -1.2442017 44.050568 11.730835 61.564056 11.730835c17.51355 0 26.003479 -13.152649 43.516968 -11.730835c17.513489 1.421875 48.296204 20.261963 61.564087 20.261963c13.267883 0 18.220154 -10.486267 18.043335 -20.261963c-0.17681885 -9.775635 -18.396667 -24.173096 -19.104248 -38.391968c-0.70758057 -14.218872 9.021057 -30.391602 14.858643 -46.921234c5.8376465 -16.529602 16.805908 -43.54709 20.167114 -52.2565" fill-rule="evenodd"/><path stroke="#339aff" stroke-width="24.0" stroke-linejoin="round" stroke-linecap="butt" d="m285.94577 476.48013c2.4767456 6.7539673 16.098938 25.06076 14.860535 40.523834c-1.2383728 15.463074 -20.344849 39.635254 -22.290833 52.254578c-1.9459839 12.619385 -1.0609131 23.816895 10.61496 23.461609c11.675873 -0.35534668 38.742462 -24.704834 59.44034 -25.593384c20.697876 -0.88861084 45.110565 20.084229 64.74689 20.261902c19.636292 0.1776123 33.96512 -17.951782 53.070984 -19.196045c19.105835 -1.2442017 44.050568 11.730835 61.564056 11.730835c17.51355 0 26.003479 -13.152649 43.516968 -11.730835c17.513489 1.421875 48.296204 20.261963 61.564087 20.261963c13.267883 0 18.220154 -10.486267 18.043335 -20.261963c-0.17681885 -9.775635 -18.396667 -24.173096 -19.104248 -38.391968c-0.70758057 -14.218872 9.021057 -30.391602 14.858643 -46.921234c5.8376465 -16.529602 16.805908 -43.54709 20.167114 -52.2565" fill-rule="evenodd"/><path fill="#000000" fill-opacity="0.0" d="m274.50906 487.4218c2.6733398 7.267151 17.376862 26.964905 16.040192 43.602844c-1.3367004 16.638 -21.959839 42.64679 -24.060303 56.224976c-2.1004639 13.578186 -1.1451416 25.626465 11.457581 25.244202c12.602722 -0.38232422 41.81787 -26.58191 64.15872 -27.538025c22.340881 -0.9561157 48.691467 21.61029 69.886505 21.801453c21.195068 0.19110107 36.661316 -19.315796 57.283783 -20.654541c20.622498 -1.3387451 47.547333 12.62207 66.45108 12.62207c18.903748 0 28.067627 -14.151978 46.971375 -12.62207c18.903687 1.5299072 52.129944 21.801392 66.45105 21.801392c14.321106 0 19.666504 -11.282959 19.475647 -21.801392c-0.19085693 -10.518433 -19.856995 -26.009827 -20.620789 -41.309082c-0.76379395 -15.299194 9.737122 -32.700745 16.038147 -50.486298c6.3010254 -17.785553 18.139954 -46.855835 21.767944 -56.22702" fill-rule="evenodd"/><path stroke="#339aff" stroke-width="24.0" stroke-linejoin="round" stroke-linecap="butt" d="m274.50906 487.4218c2.6733398 7.267151 17.376862 26.964905 16.040192 43.602844c-1.3367004 16.638 -21.959839 42.64679 -24.060303 56.224976c-2.1004639 13.578186 -1.1451416 25.626465 11.457581 25.244202c12.602722 -0.38232422 41.81787 -26.58191 64.15872 -27.538025c22.340881 -0.9561157 48.691467 21.61029 69.886505 21.801453c21.195068 0.19110107 36.661316 -19.315796 57.283783 -20.654541c20.622498 -1.3387451 47.547333 12.62207 66.45108 12.62207c18.903748 0 28.067627 -14.151978 46.971375 -12.62207c18.903687 1.5299072 52.129944 21.801392 66.45105 21.801392c14.321106 0 19.666504 -11.282959 19.475647 -21.801392c-0.19085693 -10.518433 -19.856995 -26.009827 -20.620789 -41.309082c-0.76379395 -15.299194 9.737122 -32.700745 16.038147 -50.486298c6.3010254 -17.785553 18.139954 -46.855835 21.767944 -56.22702" fill-rule="evenodd"/><path fill="#000000" d="m294.6726 457.60458c5.7682495 11.408997 28.841248 57.044952 34.609497 68.45395" fill-rule="evenodd"/><path stroke="#000000" stroke-width="12.0" stroke-linejoin="round" stroke-linecap="butt" d="m294.6726 457.60458c5.7682495 11.408997 28.841248 57.044952 34.609497 68.45395" fill-rule="evenodd"/><path fill="#000000" fill-opacity="0.0" d="m314.90695 594.1081c2.114441 17.402893 3.2678833 66.55182 12.686676 104.41742c9.418762 37.86566 34.407196 139.03186 43.82596 122.776184c9.418793 -16.255676 10.572235 -183.5918 12.686707 -220.31018" fill-rule="evenodd"/><path stroke="#339aff" stroke-width="24.0" stroke-linejoin="round" stroke-linecap="butt" d="m314.90695 594.1081c2.114441 17.402893 3.2678833 66.55182 12.686676 104.41742c9.418762 37.86566 34.407196 139.03186 43.82596 122.776184c9.418793 -16.255676 10.572235 -183.5918 12.686707 -220.31018" fill-rule="evenodd"/><path fill="#000000" fill-opacity="0.0" d="m439.39078 598.69775c3.844635 38.630554 11.149994 232.54822 23.06781 231.78326c11.917816 -0.7649536 40.365936 -196.97748 48.439117 -236.37292" fill-rule="evenodd"/><path stroke="#339aff" stroke-width="24.0" stroke-linejoin="round" stroke-linecap="butt" d="m439.39078 598.69775c3.844635 38.630554 11.149994 232.54822 23.06781 231.78326c11.917816 -0.7649536 40.365936 -196.97748 48.439117 -236.37292" fill-rule="evenodd"/><path fill="#000000" fill-opacity="0.0" d="m616.4958 594.1081c-2.114441 17.402893 -3.2678833 66.55182 -12.6866455 104.41742c-9.418823 37.86566 -34.407227 139.03186 -43.82599 122.776184c-9.418762 -16.255676 -10.572266 -183.5918 -12.686707 -220.31018" fill-rule="evenodd"/><path stroke="#339aff" stroke-width="24.0" stroke-linejoin="round" stroke-linecap="butt" d="m616.4958 594.1081c-2.114441 17.402893 -3.2678833 66.55182 -12.6866455 104.41742c-9.418823 37.86566 -34.407227 139.03186 -43.82599 122.776184c-9.418762 -16.255676 -10.572266 -183.5918 -12.686707 -220.31018" fill-rule="evenodd"/><path fill="#000000" d="m384.6426 372.55014l0 0c0 -43.09561 35.1192 -78.031494 78.44095 -78.031494l0 0c20.803833 0 40.755585 8.221161 55.466125 22.854889c14.71051 14.633759 22.974792 34.481384 22.974792 55.176605l0 0c0 43.09561 -35.11917 78.031494 -78.44092 78.031494l0 0c-43.321747 0 -78.44095 -34.935883 -78.44095 -78.031494z" fill-rule="evenodd"/><path stroke="#339aff" stroke-width="24.0" stroke-linejoin="round" stroke-linecap="butt" d="m384.6426 372.55014l0 0c0 -43.09561 35.1192 -78.031494 78.44095 -78.031494l0 0c20.803833 0 40.755585 8.221161 55.466125 22.854889c14.71051 14.633759 22.974792 34.481384 22.974792 55.176605l0 0c0 43.09561 -35.11917 78.031494 -78.44092 78.031494l0 0c-43.321747 0 -78.44095 -34.935883 -78.44095 -78.031494z" fill-rule="evenodd"/><path fill="#339aff" d="m641.62695 590.5769l0 0c0 -8.001587 4.4348755 -14.488159 9.905518 -14.488159l0 0c2.6271362 0 5.1466064 1.5264282 7.0042725 4.243469c1.857666 2.717041 2.901245 6.4022217 2.901245 10.24469l0 0c0 8.001648 -4.4348145 14.48822 -9.905518 14.48822l0 0c-5.470642 0 -9.905518 -6.4865723 -9.905518 -14.48822z" fill-rule="evenodd"/><path stroke="#339aff" stroke-width="1.0" stroke-linejoin="round" stroke-linecap="butt" d="m641.62695 590.5769l0 0c0 -8.001587 4.4348755 -14.488159 9.905518 -14.488159l0 0c2.6271362 0 5.1466064 1.5264282 7.0042725 4.243469c1.857666 2.717041 2.901245 6.4022217 2.901245 10.24469l0 0c0 8.001648 -4.4348145 14.48822 -9.905518 14.48822l0 0c-5.470642 0 -9.905518 -6.4865723 -9.905518 -14.48822z" fill-rule="evenodd"/><path fill="#339aff" d="m267.76062 597.7518l0 0c0 -8.001587 4.4348755 -14.488159 9.905518 -14.488159l0 0c2.6271057 0 5.1466064 1.5264282 7.0042725 4.243469c1.8576355 2.717041 2.901245 6.4022217 2.901245 10.24469l0 0c0 8.001648 -4.434845 14.48822 -9.905518 14.48822l0 0c-5.470642 0 -9.905518 -6.4865723 -9.905518 -14.48822z" fill-rule="evenodd"/><path stroke="#339aff" stroke-width="1.0" stroke-linejoin="round" stroke-linecap="butt" d="m267.76062 597.7518l0 0c0 -8.001587 4.4348755 -14.488159 9.905518 -14.488159l0 0c2.6271057 0 5.1466064 1.5264282 7.0042725 4.243469c1.8576355 2.717041 2.901245 6.4022217 2.901245 10.24469l0 0c0 8.001648 -4.434845 14.48822 -9.905518 14.48822l0 0c-5.470642 0 -9.905518 -6.4865723 -9.905518 -14.48822z" fill-rule="evenodd"/><path fill="#000000" fill-opacity="0.0" d="m322.09647 593.92706c1.5810547 14.2126465 2.4435425 54.351685 9.486359 85.27588c7.0427856 30.924133 25.727661 113.54468 32.770447 100.26898c7.042816 -13.275696 7.905304 -149.93604 9.486359 -179.92322" fill-rule="evenodd"/><path stroke="#339aff" stroke-width="24.0" stroke-linejoin="round" stroke-linecap="butt" d="m322.09647 593.92706c1.5810547 14.2126465 2.4435425 54.351685 9.486359 85.27588c7.0427856 30.924133 25.727661 113.54468 32.770447 100.26898c7.042816 -13.275696 7.905304 -149.93604 9.486359 -179.92322" fill-rule="evenodd"/><path fill="#000000" fill-opacity="0.0" d="m446.5794 596.5824c2.9227295 31.998535 8.476379 192.625 17.536469 191.9914c9.060089 -0.63360596 30.686737 -163.16095 36.824097 -195.79315" fill-rule="evenodd"/><path stroke="#339aff" stroke-width="24.0" stroke-linejoin="round" stroke-linecap="butt" d="m446.5794 596.5824c2.9227295 31.998535 8.476379 192.625 17.536469 191.9914c9.060089 -0.63360596 30.686737 -163.16095 36.824097 -195.79315" fill-rule="evenodd"/><path fill="#000000" fill-opacity="0.0" d="m609.30615 584.5819c-1.5810547 14.87384 -2.4435425 56.88025 -9.486328 89.2431c-7.0427856 32.362793 -25.727661 118.82709 -32.770447 104.93378c-7.0428467 -13.893311 -7.9053345 -156.91144 -9.486389 -188.29376" fill-rule="evenodd"/><path stroke="#339aff" stroke-width="24.0" stroke-linejoin="round" stroke-linecap="butt" d="m609.30615 584.5819c-1.5810547 14.87384 -2.4435425 56.88025 -9.486328 89.2431c-7.0427856 32.362793 -25.727661 118.82709 -32.770447 104.93378c-7.0428467 -13.893311 -7.9053345 -156.91144 -9.486389 -188.29376" fill-rule="evenodd"/></g></svg>